<svg width="150" height="150" viewBox="0 0 150 150" fill="none" xmlns="http://www.w3.org/2000/svg">
<path d="M75 6V48H54C42.435 48 33 38.565 33 27C33 15.435 42.435 6 54 6H75ZM75 54V96H54C42.435 96 33 86.565 33 75C33 63.435 42.435 54 54 54H75ZM75 102V123C75 134.565 65.565 144 54 144C42.435 144 33 134.565 33 123C33 111.435 42.435 102 54 102H75ZM123 27C123 38.565 113.565 48 102 48H81V6H102C113.565 6 123 15.435 123 27ZM102 54C96.4305 54 91.089 56.2125 87.1508 60.1508C83.2125 64.089 81 69.4305 81 75C81 80.5695 83.2125 85.911 87.1508 89.8492C91.089 93.7875 96.4305 96 102 96C107.57 96 112.911 93.7875 116.849 89.8492C120.788 85.911 123 80.5695 123 75C123 69.4305 120.788 64.089 116.849 60.1508C112.911 56.2125 107.57 54 102 54Z" fill="#BACBD9"/>
</svg>
