<svg width="150" height="150" viewBox="0 0 150 150" fill="none" xmlns="http://www.w3.org/2000/svg">
<path d="M135.82 6.97266C135.258 6.35156 134.449 6 133.606 6H16.3946C15.5509 6 14.7423 6.35156 14.1798 6.97266C13.6055 7.59375 13.3243 8.42578 13.4063 9.26953L23.9649 127.547C24.0704 128.789 24.9376 129.82 26.1329 130.172L74.168 143.883C74.4259 143.965 74.7071 144 74.9884 144C75.2696 144 75.5391 143.965 75.8087 143.883L123.879 130.172C125.074 129.82 125.93 128.789 126.047 127.547L136.594 9.26953C136.676 8.42578 136.395 7.59375 135.82 6.97266ZM110.543 47.7539H54.1055L55.4532 63.0234H109.184L105.152 108.152L74.9766 117.27L74.6837 117.176L44.8595 108.141L43.2305 89.7539H57.8438L58.4766 96.8906L75.1524 100.383L91.5235 96.8906L93.2696 77.5781H42.1407L38.168 33.1641H111.844L110.543 47.7539Z" fill="#BACBD9"/>
</svg>
