<svg width="152" height="26" viewBox="0 0 152 26" fill="none" xmlns="http://www.w3.org/2000/svg">
<path d="M26.6487 13.3523C26.6487 11.6706 27.0467 10.162 27.8428 8.82648C28.6559 7.49099 29.7484 6.45229 31.1204 5.71035C32.5094 4.95193 34.0254 4.57272 35.6684 4.57272C37.5485 4.57272 39.217 5.02613 40.6737 5.93293C42.1473 6.82325 43.2144 8.09278 43.875 9.74153H40.3942C39.9369 8.83472 39.3017 8.15874 38.4886 7.71357C37.6756 7.26841 36.7355 7.04583 35.6684 7.04583C34.4996 7.04583 33.4579 7.30139 32.5432 7.8125C31.6286 8.32361 30.9087 9.0573 30.3836 10.0136C29.8754 10.9698 29.6214 12.0827 29.6214 13.3523C29.6214 14.6218 29.8754 15.7347 30.3836 16.691C30.9087 17.6472 31.6286 18.3892 32.5432 18.9168C33.4579 19.4279 34.4996 19.6834 35.6684 19.6834C36.7355 19.6834 37.6756 19.4609 38.4886 19.0157C39.3017 18.5705 39.9369 17.8946 40.3942 16.9877H43.875C43.2144 18.6365 42.1473 19.906 40.6737 20.7963C39.217 21.6867 37.5485 22.1318 35.6684 22.1318C34.0084 22.1318 32.4924 21.7608 31.1204 21.0189C29.7484 20.2605 28.6559 19.2135 27.8428 17.8781C27.0467 16.5426 26.6487 15.034 26.6487 13.3523Z" fill="url(#paint0_linear_643_784)"/>
<path d="M52.1944 22.206C50.8732 22.206 49.6791 21.9175 48.612 21.3404C47.5448 20.7469 46.7064 19.9225 46.0966 18.8673C45.4868 17.7956 45.1819 16.5591 45.1819 15.1576C45.1819 13.7727 45.4953 12.5444 46.122 11.4727C46.7487 10.401 47.6041 9.57665 48.6882 8.99959C49.7722 8.42253 50.9833 8.134 52.3215 8.134C53.6596 8.134 54.8707 8.42253 55.9548 8.99959C57.0388 9.57665 57.8942 10.401 58.5209 11.4727C59.1477 12.5444 59.461 13.7727 59.461 15.1576C59.461 16.5426 59.1392 17.7709 58.4955 18.8426C57.8519 19.9143 56.9711 20.7469 55.8531 21.3404C54.7521 21.9175 53.5326 22.206 52.1944 22.206ZM52.1944 19.7576C52.9397 19.7576 53.6342 19.5845 54.2779 19.2383C54.9385 18.892 55.472 18.3727 55.8785 17.6802C56.2851 16.9877 56.4883 16.1469 56.4883 15.1576C56.4883 14.1684 56.2935 13.3358 55.9039 12.6598C55.5144 11.9673 54.9977 11.448 54.3541 11.1017C53.7104 10.7555 53.016 10.5824 52.2707 10.5824C51.5254 10.5824 50.8309 10.7555 50.1872 11.1017C49.5605 11.448 49.0608 11.9673 48.6882 12.6598C48.3155 13.3358 48.1292 14.1684 48.1292 15.1576C48.1292 16.625 48.5103 17.7627 49.2726 18.5705C50.0517 19.3619 51.0257 19.7576 52.1944 19.7576Z" fill="url(#paint1_linear_643_784)"/>
<path d="M60.2155 15.1082C60.2155 13.7397 60.5035 12.5279 61.0794 11.4727C61.6722 10.4175 62.4683 9.60138 63.4677 9.02432C64.484 8.43078 65.6104 8.134 66.8469 8.134C67.7616 8.134 68.6593 8.33185 69.5401 8.72755C70.4378 9.10676 71.1492 9.61787 71.6743 10.2609V3.6824H74.5962V21.9834H71.6743V19.9307C71.2001 20.5902 70.5395 21.1343 69.6925 21.563C68.8626 21.9917 67.9055 22.206 66.8215 22.206C65.6019 22.206 64.484 21.9092 63.4677 21.3157C62.4683 20.7057 61.6722 19.8648 61.0794 18.7931C60.5035 17.7049 60.2155 16.4766 60.2155 15.1082ZM71.6743 15.1576C71.6743 14.2179 71.4711 13.4017 71.0645 12.7093C70.675 12.0168 70.1583 11.4892 69.5147 11.1265C68.871 10.7637 68.1765 10.5824 67.4313 10.5824C66.686 10.5824 65.9915 10.7637 65.3478 11.1265C64.7042 11.4727 64.1791 11.9921 63.7726 12.6845C63.383 13.3605 63.1882 14.1684 63.1882 15.1082C63.1882 16.048 63.383 16.8723 63.7726 17.5813C64.1791 18.2902 64.7042 18.8343 65.3478 19.2135C66.0084 19.5763 66.7029 19.7576 67.4313 19.7576C68.1765 19.7576 68.871 19.5763 69.5147 19.2135C70.1583 18.8508 70.675 18.3232 71.0645 17.6308C71.4711 16.9218 71.6743 16.0974 71.6743 15.1576Z" fill="url(#paint2_linear_643_784)"/>
<path d="M90.0881 14.8361C90.0881 15.3472 90.0542 15.8089 89.9865 16.2211H79.2899C79.3746 17.3092 79.7895 18.1831 80.5348 18.8426C81.2801 19.5021 82.1948 19.8318 83.2789 19.8318C84.8372 19.8318 85.9382 19.1971 86.5818 17.9275H89.707C89.2835 19.1806 88.5128 20.211 87.3949 21.0189C86.2939 21.8103 84.9219 22.206 83.2789 22.206C81.9407 22.206 80.7381 21.9175 79.671 21.3404C78.6208 20.7469 77.7908 19.9225 77.181 18.8673C76.5882 17.7956 76.2918 16.5591 76.2918 15.1576C76.2918 13.7562 76.5797 12.5279 77.1556 11.4727C77.7485 10.401 78.57 9.57665 79.6202 8.99959C80.6873 8.42253 81.9068 8.134 83.2789 8.134C84.6001 8.134 85.7773 8.41429 86.8105 8.97486C87.8438 9.53543 88.6483 10.3268 89.2242 11.349C89.8001 12.3548 90.0881 13.5171 90.0881 14.8361ZM87.0646 13.9458C87.0476 12.9071 86.6665 12.0745 85.9212 11.448C85.176 10.8215 84.2528 10.5082 83.1518 10.5082C82.1525 10.5082 81.2971 10.8215 80.5857 11.448C79.8742 12.058 79.4508 12.8906 79.3153 13.9458H87.0646Z" fill="url(#paint3_linear_643_784)"/>
<path d="M98.8585 8.134C99.9595 8.134 100.942 8.35658 101.806 8.80174C102.687 9.2469 103.373 9.9064 103.864 10.7802C104.355 11.6541 104.601 12.7093 104.601 13.9458V21.9834H101.73V14.3662C101.73 13.1462 101.416 12.2146 100.789 11.5716C100.163 10.9121 99.3074 10.5824 98.2233 10.5824C97.1392 10.5824 96.2754 10.9121 95.6317 11.5716C95.005 12.2146 94.6916 13.1462 94.6916 14.3662V21.9834H91.7952V8.35658H94.6916V9.91464C95.1659 9.35407 95.7672 8.91716 96.4956 8.6039C97.2409 8.29063 98.0285 8.134 98.8585 8.134Z" fill="url(#paint4_linear_643_784)"/>
<path d="M106.186 15.1082C106.186 13.7397 106.474 12.5279 107.05 11.4727C107.643 10.4175 108.439 9.60138 109.439 9.02432C110.455 8.43078 111.573 8.134 112.792 8.134C113.893 8.134 114.85 8.34834 115.663 8.77701C116.493 9.1892 117.154 9.70855 117.645 10.3351V8.35658H120.567V21.9834H117.645V19.9555C117.154 20.5985 116.485 21.1343 115.638 21.563C114.791 21.9917 113.826 22.206 112.742 22.206C111.539 22.206 110.438 21.9092 109.439 21.3157C108.439 20.7057 107.643 19.8648 107.05 18.7931C106.474 17.7049 106.186 16.4766 106.186 15.1082ZM117.645 15.1576C117.645 14.2179 117.442 13.4017 117.035 12.7093C116.646 12.0168 116.129 11.4892 115.486 11.1265C114.842 10.7637 114.147 10.5824 113.402 10.5824C112.657 10.5824 111.962 10.7637 111.319 11.1265C110.675 11.4727 110.15 11.9921 109.743 12.6845C109.354 13.3605 109.159 14.1684 109.159 15.1082C109.159 16.048 109.354 16.8723 109.743 17.5813C110.15 18.2902 110.675 18.8343 111.319 19.2135C111.979 19.5763 112.674 19.7576 113.402 19.7576C114.147 19.7576 114.842 19.5763 115.486 19.2135C116.129 18.8508 116.646 18.3232 117.035 17.6308C117.442 16.9218 117.645 16.0974 117.645 15.1576Z" fill="url(#paint5_linear_643_784)"/>
<path d="M130.291 8.134C131.392 8.134 132.375 8.35658 133.239 8.80174C134.12 9.2469 134.806 9.9064 135.297 10.7802C135.788 11.6541 136.034 12.7093 136.034 13.9458V21.9834H133.163V14.3662C133.163 13.1462 132.849 12.2146 132.222 11.5716C131.596 10.9121 130.74 10.5824 129.656 10.5824C128.572 10.5824 127.708 10.9121 127.065 11.5716C126.438 12.2146 126.125 13.1462 126.125 14.3662V21.9834H123.228V8.35658H126.125V9.91464C126.599 9.35407 127.2 8.91716 127.929 8.6039C128.674 8.29063 129.461 8.134 130.291 8.134Z" fill="url(#paint6_linear_643_784)"/>
<path d="M137.619 15.1082C137.619 13.7397 137.907 12.5279 138.483 11.4727C139.076 10.4175 139.872 9.60138 140.872 9.02432C141.888 8.43078 143.014 8.134 144.251 8.134C145.165 8.134 146.063 8.33185 146.944 8.72755C147.842 9.10676 148.553 9.61787 149.078 10.2609V3.6824H152V21.9834H149.078V19.9307C148.604 20.5902 147.943 21.1343 147.096 21.563C146.266 21.9917 145.309 22.206 144.225 22.206C143.006 22.206 141.888 21.9092 140.872 21.3157C139.872 20.7057 139.076 19.8648 138.483 18.7931C137.907 17.7049 137.619 16.4766 137.619 15.1082ZM149.078 15.1576C149.078 14.2179 148.875 13.4017 148.468 12.7093C148.079 12.0168 147.562 11.4892 146.919 11.1265C146.275 10.7637 145.58 10.5824 144.835 10.5824C144.09 10.5824 143.395 10.7637 142.752 11.1265C142.108 11.4727 141.583 11.9921 141.176 12.6845C140.787 13.3605 140.592 14.1684 140.592 15.1082C140.592 16.048 140.787 16.8723 141.176 17.5813C141.583 18.2902 142.108 18.8343 142.752 19.2135C143.412 19.5763 144.107 19.7576 144.835 19.7576C145.58 19.7576 146.275 19.5763 146.919 19.2135C147.562 18.8508 148.079 18.3232 148.468 17.6308C148.875 16.9218 149.078 16.0974 149.078 15.1576Z" fill="url(#paint7_linear_643_784)"/>
<path d="M0 0C4.8006 0 8.69225 3.89165 8.69225 8.69225V21.0901C3.89165 21.0901 0 17.1985 0 12.3979V0Z" fill="url(#paint8_linear_643_784)"/>
<path d="M11.2085 9.03864H11.4201C16.1038 9.03864 19.9007 12.8356 19.9007 17.5193C19.9007 22.2031 16.1038 26 11.4201 26H11.2085V9.03864Z" fill="url(#paint9_linear_643_784)"/>
<defs>
<linearGradient id="paint0_linear_643_784" x1="89.3244" y1="3.6824" x2="89.3244" y2="22.206" gradientUnits="userSpaceOnUse">
<stop stop-color="#BACBD9"/>
<stop offset="1" stop-color="#F2F8FC"/>
</linearGradient>
<linearGradient id="paint1_linear_643_784" x1="89.3244" y1="3.6824" x2="89.3244" y2="22.206" gradientUnits="userSpaceOnUse">
<stop stop-color="#BACBD9"/>
<stop offset="1" stop-color="#F2F8FC"/>
</linearGradient>
<linearGradient id="paint2_linear_643_784" x1="89.3244" y1="3.6824" x2="89.3244" y2="22.206" gradientUnits="userSpaceOnUse">
<stop stop-color="#BACBD9"/>
<stop offset="1" stop-color="#F2F8FC"/>
</linearGradient>
<linearGradient id="paint3_linear_643_784" x1="89.3244" y1="3.6824" x2="89.3244" y2="22.206" gradientUnits="userSpaceOnUse">
<stop stop-color="#BACBD9"/>
<stop offset="1" stop-color="#F2F8FC"/>
</linearGradient>
<linearGradient id="paint4_linear_643_784" x1="89.3244" y1="3.6824" x2="89.3244" y2="22.206" gradientUnits="userSpaceOnUse">
<stop stop-color="#BACBD9"/>
<stop offset="1" stop-color="#F2F8FC"/>
</linearGradient>
<linearGradient id="paint5_linear_643_784" x1="89.3244" y1="3.6824" x2="89.3244" y2="22.206" gradientUnits="userSpaceOnUse">
<stop stop-color="#BACBD9"/>
<stop offset="1" stop-color="#F2F8FC"/>
</linearGradient>
<linearGradient id="paint6_linear_643_784" x1="89.3244" y1="3.6824" x2="89.3244" y2="22.206" gradientUnits="userSpaceOnUse">
<stop stop-color="#BACBD9"/>
<stop offset="1" stop-color="#F2F8FC"/>
</linearGradient>
<linearGradient id="paint7_linear_643_784" x1="89.3244" y1="3.6824" x2="89.3244" y2="22.206" gradientUnits="userSpaceOnUse">
<stop stop-color="#BACBD9"/>
<stop offset="1" stop-color="#F2F8FC"/>
</linearGradient>
<linearGradient id="paint8_linear_643_784" x1="4.34613" y1="0" x2="4.34613" y2="21.0901" gradientUnits="userSpaceOnUse">
<stop stop-color="#F76D31"/>
<stop offset="0.0001" stop-color="#C43D10"/>
<stop offset="1" stop-color="#FC783F"/>
</linearGradient>
<linearGradient id="paint9_linear_643_784" x1="15.5546" y1="9.03864" x2="15.5546" y2="26" gradientUnits="userSpaceOnUse">
<stop stop-color="#405480"/>
<stop offset="1" stop-color="#9BC0EB"/>
</linearGradient>
</defs>
</svg>
