<svg width="150" height="150" viewBox="0 0 150 150" fill="none" xmlns="http://www.w3.org/2000/svg">
<path d="M145.057 119.642H93.6478C92.5398 119.642 91.4319 120.75 91.4319 121.858V127.398H61.2955V121.858C61.2955 120.75 60.1875 119.642 59.0796 119.642H7.6705C6.56254 119.642 5.45459 120.75 5.45459 121.858C5.45459 132.494 13.875 141.136 24.2898 141.136H128.438C133.534 141.136 138.188 139.142 141.733 135.375C145.278 131.608 147.273 126.955 147.273 121.858C147.273 120.528 146.165 119.642 145.057 119.642Z" fill="#BACBD9"/>
<path d="M12.1024 115.21H140.625C141.955 115.21 142.841 114.324 142.841 112.994V16.6023C142.841 11.9489 139.074 8.18182 134.421 8.18182H18.3069C13.6535 8.18182 9.88647 11.9489 9.88647 16.6023V112.994C9.88647 114.102 10.9944 115.21 12.1024 115.21ZM14.3183 16.6023C14.3183 14.3864 16.091 12.6136 18.3069 12.6136H134.421C136.636 12.6136 138.409 14.3864 138.409 16.6023V110.778H14.3183V16.6023Z" fill="#BACBD9"/>
<path d="M130.21 19.483H22.5172C21.1876 19.483 20.3013 20.5909 20.3013 21.6989V101.472C20.3013 102.58 21.1876 103.688 22.5172 103.688H130.21C131.54 103.688 132.426 102.58 132.426 101.472V21.6989C132.426 20.5909 131.318 19.483 130.21 19.483ZM84.5626 38.983H110.71C112.04 38.983 112.926 39.8693 112.926 41.1989C112.926 42.5284 112.04 43.4148 110.71 43.4148H84.5626C83.2331 43.4148 82.3467 42.5284 82.3467 41.1989C82.3467 39.8693 83.2331 38.983 84.5626 38.983ZM84.5626 51.6137H110.71C112.04 51.6137 112.926 52.5 112.926 53.8296C112.926 55.1591 112.04 56.0455 110.71 56.0455H84.5626C83.2331 56.0455 82.3467 55.1591 82.3467 53.8296C82.3467 52.5 83.2331 51.6137 84.5626 51.6137ZM34.0399 32.5568C34.0399 31.2273 34.9263 30.3409 36.2558 30.3409H63.9547C65.2842 30.3409 66.1706 31.2273 66.1706 32.5568V56.0455C66.1706 57.375 65.2842 58.2614 63.9547 58.2614H36.2558C34.9263 58.2614 34.0399 57.375 34.0399 56.0455V32.5568ZM36.2558 64.2443H113.148C114.477 64.2443 115.364 65.1307 115.364 66.4602C115.364 67.7898 114.477 68.6761 113.148 68.6761H36.2558C34.9263 68.6761 34.0399 67.7898 34.0399 66.4602C34.0399 65.1307 35.1479 64.2443 36.2558 64.2443ZM81.9035 81.5284H36.2558C34.9263 81.5284 34.0399 80.6421 34.0399 79.3125C34.0399 77.983 34.9263 77.0966 36.2558 77.0966H81.682C83.0115 77.0966 83.8979 77.983 83.8979 79.3125C83.8979 80.6421 83.0115 81.5284 81.9035 81.5284ZM118.244 87.0682L114.256 92.3864C113.591 93.0512 112.705 93.2727 111.818 92.8296L104.949 87.5114L103.176 89.9489C102.29 91.0568 100.517 90.8352 100.074 89.5057L96.307 76.6534C96.0854 75.5455 96.7501 74.4375 98.0797 74.4375L111.597 74.6591C112.926 74.6591 113.813 76.2102 112.926 77.5398L111.154 79.9773L118.023 85.2955C118.688 85.2955 118.909 86.4034 118.244 87.0682Z" fill="#BACBD9"/>
<path d="M61.7387 34.7727H38.4717V53.8295H61.7387V34.7727Z" fill="#BACBD9"/>
</svg>
