<svg width="150" height="150" viewBox="0 0 150 150" fill="none" xmlns="http://www.w3.org/2000/svg">
<path d="M120 15H30C21.732 15 15 21.726 15 30V51H135V30C135 21.726 128.268 15 120 15ZM48 39H36C34.344 39 33 37.656 33 36C33 34.344 34.344 33 36 33H48C49.656 33 51 34.344 51 36C51 37.656 49.656 39 48 39ZM72 39H60C58.344 39 57 37.656 57 36C57 34.344 58.344 33 60 33H72C73.656 33 75 34.344 75 36C75 37.656 73.656 39 72 39Z" fill="#BACBD9"/>
<path d="M66 99C70.9706 99 75 94.9706 75 90C75 85.0294 70.9706 81 66 81C61.0294 81 57 85.0294 57 90C57 94.9706 61.0294 99 66 99Z" fill="#BACBD9"/>
<path d="M15 120C15 128.274 21.732 135 30 135H120C128.268 135 135 128.274 135 120V57H15V120ZM66 75C74.268 75 81 81.726 81 90C81 93.054 80.076 95.886 78.498 98.262L95.118 114.882C96.288 116.052 96.288 117.954 95.118 119.124C94.536 119.706 93.768 120 93 120C92.232 120 91.464 119.706 90.876 119.124L74.256 102.504C71.886 104.076 69.054 105 66 105C57.732 105 51 98.274 51 90C51 81.726 57.732 75 66 75Z" fill="#BACBD9"/>
</svg>
